<?xml version="1.0" encoding="UTF-8"?>
<svg width="1200pt" height="1200pt" version="1.1" viewBox="0 0 1200 1200" xmlns="http://www.w3.org/2000/svg">
 <path d="m600 100c-132.61 0-259.79 52.68-353.55 146.45-93.766 93.77-146.45 220.95-146.45 353.55s52.68 259.79 146.45 353.55c93.77 93.766 220.95 146.45 353.55 146.45s259.79-52.68 353.55-146.45c93.766-93.77 146.45-220.95 146.45-353.55 0-87.77-23.102-173.99-66.988-250-43.883-76.008-107-139.13-183.01-183.01-76.008-43.887-162.23-66.988-250-66.988zm185.35 614.65c9.6445 9.3203 15.145 22.121 15.262 35.531 0.11719 13.41-5.1602 26.309-14.645 35.789-9.4805 9.4844-22.379 14.762-35.789 14.645-13.41-0.11719-26.211-5.6172-35.531-15.262l-114.65-114.65-114.65 114.65c-12.703 12.266-30.93 16.922-47.957 12.254-17.027-4.668-30.332-17.973-35-35-4.668-17.027-0.011719-35.254 12.254-47.957l114.65-114.65-114.65-114.65c-12.266-12.703-16.922-30.93-12.254-47.957 4.668-17.027 17.973-30.332 35-35 17.027-4.668 35.254-0.011719 47.957 12.254l114.65 114.65 114.65-114.65v-0.003906c12.703-12.266 30.93-16.922 47.957-12.254 17.027 4.668 30.332 17.973 35 35 4.668 17.027 0.011719 35.254-12.254 47.957l-114.65 114.65z" fill="#E0D570"/>
</svg>
